<svg xmlns="http://www.w3.org/2000/svg" viewBox="-10 -10 220 220">
  <defs>
    <pattern id="stars" x="0" y="0" width="100" height="100" patternUnits="userSpaceOnUse">
      <!-- Random stars -->
  <circle cx="12" cy="84" r="0.4" fill="white" opacity="0.6"/>
<circle cx="12" cy="84" r="0.4" fill="white" opacity="0.6"/>
<circle cx="95" cy="27" r="0.5" fill="white" opacity="0.4"/>
<circle cx="33" cy="92" r="0.3" fill="white" opacity="0.7"/>
<circle cx="76" cy="13" r="0.6" fill="white" opacity="0.5"/>
<circle cx="45" cy="78" r="0.4" fill="white" opacity="0.6"/>
<circle cx="88" cy="45" r="0.5" fill="white" opacity="0.5"/>
<circle cx="23" cy="67" r="0.3" fill="white" opacity="0.4"/>
<circle cx="54" cy="28" r="0.4" fill="white" opacity="0.7"/>
<circle cx="67" cy="91" r="0.5" fill="white" opacity="0.5"/>
<circle cx="15" cy="34" r="0.3" fill="white" opacity="0.6"/>
<circle cx="89" cy="73" r="0.4" fill="white" opacity="0.4"/>
<circle cx="37" cy="52" r="0.5" fill="white" opacity="0.7"/>
<circle cx="72" cy="88" r="0.3" fill="white" opacity="0.5"/>
<circle cx="28" cy="19" r="0.6" fill="white" opacity="0.6"/>
<circle cx="93" cy="61" r="0.4" fill="white" opacity="0.4"/>
<circle cx="41" cy="37" r="0.5" fill="white" opacity="0.7"/>
<circle cx="82" cy="96" r="0.3" fill="white" opacity="0.5"/>
<circle cx="19" cy="44" r="0.4" fill="white" opacity="0.6"/>
<circle cx="61" cy="82" r="0.5" fill="white" opacity="0.4"/>
<circle cx="7" cy="17" r="0.3" fill="white" opacity="0.7"/>
<circle cx="48" cy="93" r="0.4" fill="white" opacity="0.5"/>
<circle cx="86" cy="31" r="0.6" fill="white" opacity="0.6"/>
<circle cx="25" cy="76" r="0.3" fill="white" opacity="0.4"/>
<circle cx="71" cy="22" r="0.5" fill="white" opacity="0.7"/>
<circle cx="39" cy="69" r="0.4" fill="white" opacity="0.5"/>
<circle cx="92" cy="41" r="0.3" fill="white" opacity="0.6"/>
<circle cx="14" cy="58" r="0.5" fill="white" opacity="0.4"/>
<circle cx="63" cy="15" r="0.4" fill="white" opacity="0.7"/>
<circle cx="31" cy="87" r="0.6" fill="white" opacity="0.5"/>
<circle cx="79" cy="33" r="0.3" fill="white" opacity="0.6"/>
<circle cx="11" cy="24" r="0.5" fill="white" opacity="0.7"/>
<circle cx="55" cy="65" r="0.4" fill="white" opacity="0.6"/>
<circle cx="90" cy="80" r="0.3" fill="white" opacity="0.5"/>
<circle cx="38" cy="12" r="0.6" fill="white" opacity="0.4"/>
<circle cx="22" cy="99" r="0.3" fill="white" opacity="0.6"/>
<circle cx="46" cy="53" r="0.5" fill="white" opacity="0.5"/>
<circle cx="75" cy="29" r="0.4" fill="white" opacity="0.6"/>
<circle cx="62" cy="50" r="0.3" fill="white" opacity="0.7"/>
<circle cx="18" cy="83" r="0.4" fill="white" opacity="0.5"/>
<circle cx="81" cy="70" r="0.5" fill="white" opacity="0.6"/>
<circle cx="44" cy="40" r="0.3" fill="white" opacity="0.5"/>
<circle cx="97" cy="55" r="0.4" fill="white" opacity="0.6"/>
<circle cx="12" cy="95" r="0.3" fill="white" opacity="0.5"/>
<circle cx="77" cy="7" r="0.4" fill="white" opacity="0.6"/>
<circle cx="60" cy="47" r="0.5" fill="white" opacity="0.7"/>
<circle cx="23" cy="21" r="0.4" fill="white" opacity="0.6"/>
<circle cx="89" cy="65" r="0.3" fill="white" opacity="0.5"/>
<circle cx="52" cy="83" r="0.4" fill="white" opacity="0.4"/>
<circle cx="30" cy="57" r="0.5" fill="white" opacity="0.7"/>
<circle cx="83" cy="28" r="0.3" fill="white" opacity="0.5"/>
<circle cx="19" cy="71" r="0.4" fill="white" opacity="0.6"/>
<circle cx="70" cy="92" r="0.5" fill="white" opacity="0.7"/>
<circle cx="36" cy="43" r="0.3" fill="white" opacity="0.5"/>
<circle cx="87" cy="17" r="0.4" fill="white" opacity="0.6"/>
<circle cx="54" cy="75" r="0.5" fill="white" opacity="0.4"/>
<circle cx="25" cy="99" r="0.3" fill="white" opacity="0.5"/>
<circle cx="64" cy="33" r="0.4" fill="white" opacity="0.7"/>
<circle cx="40" cy="60" r="0.3" fill="white" opacity="0.6"/>
<circle cx="80" cy="15" r="0.5" fill="white" opacity="0.5"/>
<circle cx="29" cy="48" r="0.4" fill="white" opacity="0.6"/>
<circle cx="91" cy="90" r="0.3" fill="white" opacity="0.7"/>
<circle cx="58" cy="37" r="0.5" fill="white" opacity="0.5"/>
    </pattern>
  </defs>

  <!-- Hexagon -->
  <path d="M100,0 L186.6,50 L186.6,150 L100,200 L13.4,150 L13.4,50 Z" 
        fill="#000000"/>
  
  <!-- Stars overlay -->
  <path d="M100,0 L186.6,50 L186.6,150 L100,200 L13.4,150 L13.4,50 Z" 
        fill="url(#stars)" 
        opacity="0.8"/>

  <!-- Text with Ace editor default font stack -->
  <text x="100" y="75" 
        text-anchor="middle" 
        font-family="Monaco, Menlo, 'Ubuntu Mono', Consolas, source-code-pro, monospace" 
        font-size="28" 
        font-weight="bold" 
        fill="white">SCRAPEABLE</text>
</svg>